# xmcd
#
# Track frame offsets: 
#        150
#        10124
#        25736
#        40193
#        54343
#
# Disc length: 955 seconds
#
# Revision: 0
# Processed by: cddbd v1.5.2PL0 Copyright (c) Steve Scherf et al.
# Submitted via: ExactAudioCopy v1.0b3
#
DISCID=2e03b905
DTITLE=Congratulations! - KIDS BOSSA
DYEAR=2010
DGENRE=Vocal
TTITLE0=Congratulations
TTITLE1=Twinkle little Star
TTITLE2=Under The sea
TTITLE3=I can't Help Falling In Love With You
TTITLE4=All You Need Is Love
EXTD=
EXTT0=
EXTT1=
EXTT2=
EXTT3=
EXTT4=
PLAYORDER=
